<svg width="26" height="26" viewBox="0 0 26 26" fill="none" xmlns="http://www.w3.org/2000/svg">
<path d="M0.201172 9.79985L12.5217 0.559466C12.66 0.455277 12.8284 0.398926 13.0016 0.398926C13.1747 0.398926 13.3432 0.455277 13.4815 0.559466L25.802 9.79985L13.0011 19.3996L0.201172 9.79985Z" fill="#E2E4E5"/>
<path d="M24.2011 14.6372C24.2011 14.8195 24.1287 14.9944 23.9997 15.1234C23.8708 15.2523 23.6959 15.3247 23.5136 15.3247H2.88772C2.70538 15.3247 2.5305 15.2523 2.40157 15.1234C2.27263 14.9944 2.2002 14.8195 2.2002 14.6372V3.63675C2.2002 3.4544 2.27263 3.27953 2.40157 3.15059C2.5305 3.02165 2.70538 2.94922 2.88772 2.94922H23.5136C23.6959 2.94922 23.8708 3.02165 23.9997 3.15059C24.1287 3.27953 24.2011 3.4544 24.2011 3.63675V14.6372Z" fill="#8CE3D4"/>
<path d="M22.826 6.73051V11.5432C22.5099 11.543 22.1969 11.605 21.9048 11.7259C21.6128 11.8467 21.3474 12.024 21.1239 12.2475C20.9004 12.471 20.7232 12.7363 20.6023 13.0284C20.4815 13.3205 20.4194 13.6335 20.4196 13.9496H5.98155C5.98179 13.6335 5.91971 13.3205 5.79886 13.0284C5.67802 12.7363 5.50078 12.471 5.27728 12.2475C5.05378 12.024 4.78841 11.8467 4.49635 11.7259C4.20429 11.605 3.89127 11.543 3.5752 11.5432V6.73051C3.89119 6.73075 4.20414 6.6687 4.49614 6.54791C4.78814 6.42713 5.05347 6.24997 5.27695 6.02656C5.50044 5.80316 5.6777 5.5379 5.7986 5.24595C5.9195 4.95399 5.98167 4.64107 5.98155 4.32507H20.4196C20.419 4.64125 20.4809 4.95443 20.6016 5.24666C20.7223 5.53888 20.8995 5.8044 21.1231 6.02797C21.3467 6.25154 21.6122 6.42877 21.9044 6.54948C22.1966 6.6702 22.5098 6.73111 22.826 6.73051Z" fill="#0D9681"/>
<path d="M20.0773 10.1684C20.2151 10.1726 20.3523 10.149 20.4809 10.0991C20.6094 10.0491 20.7267 9.97395 20.8256 9.8779C20.9246 9.78186 21.0032 9.66693 21.057 9.53993C21.1107 9.41292 21.1384 9.27643 21.1384 9.13853C21.1384 9.00063 21.1107 8.86414 21.057 8.73714C21.0032 8.61013 20.9246 8.4952 20.8256 8.39916C20.7267 8.30312 20.6094 8.22791 20.4809 8.178C20.3523 8.1281 20.2151 8.1045 20.0773 8.10861C19.804 8.10861 19.5419 8.21717 19.3487 8.4104C19.1554 8.60364 19.0469 8.86572 19.0469 9.13899C19.0469 9.41226 19.1554 9.67434 19.3487 9.86757C19.5419 10.0608 19.804 10.1684 20.0773 10.1684Z" fill="#C2F8F0"/>
<path d="M6.32652 10.1684C6.46435 10.1726 6.60161 10.149 6.73016 10.0991C6.85871 10.0491 6.97594 9.97395 7.07489 9.8779C7.17384 9.78186 7.25251 9.66693 7.30623 9.53993C7.35995 9.41292 7.38762 9.27643 7.38762 9.13853C7.38762 9.00063 7.35995 8.86414 7.30623 8.73714C7.25251 8.61013 7.17384 8.4952 7.07489 8.39916C6.97594 8.30312 6.85871 8.22791 6.73016 8.178C6.60161 8.1281 6.46435 8.1045 6.32652 8.10861C6.05325 8.10861 5.79117 8.21717 5.59793 8.4104C5.4047 8.60364 5.29614 8.86572 5.29614 9.13899C5.29614 9.41226 5.4047 9.67434 5.59793 9.86757C5.79117 10.0608 6.05325 10.1684 6.32652 10.1684Z" fill="#0D9681"/>
<path d="M5.9816 13.9497C5.98221 13.6335 5.92038 13.3203 5.79966 13.0281C5.67894 12.7359 5.50172 12.4704 5.27815 12.2468C5.05457 12.0232 4.78906 11.846 4.49684 11.7253C4.20461 11.6046 3.89143 11.5427 3.57525 11.5433V6.73063C4.21346 6.73063 4.82552 6.4771 5.2768 6.02582C5.72808 5.57454 5.9816 4.96248 5.9816 4.32428H18.1499L19.525 2.94922H2.88772C2.70538 2.94922 2.5305 3.02165 2.40157 3.15059C2.27263 3.27953 2.2002 3.4544 2.2002 3.63675V14.6372C2.2002 15.0167 2.50821 15.3247 2.88772 15.3247H7.1504L8.52546 13.9497H5.9816Z" fill="#C2F8F0"/>
<path d="M3.5752 6.73051V11.5432C3.89124 11.5431 4.2042 11.6052 4.49621 11.7261C4.78821 11.847 5.05354 12.0243 5.27701 12.2477C5.50048 12.4712 5.67773 12.7365 5.79862 13.0285C5.91951 13.3206 5.98167 13.6335 5.98155 13.9496H8.52448L10.8419 11.633C10.501 11.313 10.2294 10.9264 10.0438 10.4972C9.85821 10.0681 9.76263 9.60537 9.76295 9.13777C9.763 8.56844 9.90445 8.00803 10.1746 7.50687C10.4448 7.00571 10.8352 6.57949 11.3107 6.2665C11.7863 5.9535 12.3322 5.76353 12.8993 5.71363C13.4665 5.66374 14.0371 5.75549 14.5601 5.98064C14.99 6.16673 15.3759 6.43808 15.6968 6.77818L18.1508 4.32507H5.98155C5.98179 4.64115 5.91971 4.95417 5.79886 5.24623C5.67802 5.53829 5.50078 5.80366 5.27728 6.02716C5.05378 6.25066 4.78841 6.4279 4.49635 6.54874C4.20429 6.66959 3.89127 6.73075 3.5752 6.73051ZM7.35752 9.13869C7.3633 9.2758 7.34163 9.41268 7.29379 9.5413C7.24595 9.66991 7.1729 9.78768 7.07893 9.88769C6.98496 9.98769 6.87196 10.0679 6.74656 10.1236C6.62116 10.1794 6.48589 10.2095 6.34869 10.2123C6.21149 10.215 6.07512 10.1903 5.94759 10.1397C5.82006 10.089 5.70394 10.0133 5.60603 9.91718C5.50813 9.82102 5.43043 9.70627 5.37748 9.57967C5.32453 9.45307 5.2974 9.31717 5.29768 9.17994C5.29825 8.91062 5.40424 8.65221 5.59297 8.46007C5.78169 8.26793 6.03815 8.15731 6.30743 8.15192C6.5767 8.14653 6.83738 8.24678 7.03365 8.43122C7.22992 8.61565 7.34617 8.8696 7.35752 9.13869Z" fill="#17B198"/>
<path d="M13.2006 12.5755C14.1124 12.5755 14.9869 12.2133 15.6317 11.5685C16.2765 10.9238 16.6387 10.0493 16.6387 9.13744C16.6387 8.2256 16.2765 7.35111 15.6317 6.70634C14.9869 6.06157 14.1124 5.69934 13.2006 5.69934C12.2889 5.69934 11.4145 6.06152 10.7698 6.7062C10.1251 7.35089 9.76294 8.22526 9.76294 9.13698C9.76294 10.0487 10.1251 10.9231 10.7698 11.5678C11.4145 12.2124 12.2889 12.5755 13.2006 12.5755Z" fill="#C2F8F0"/>
<path d="M13.1963 7.35863C13.3155 7.35863 13.4108 7.45397 13.4108 7.57314V7.63181C13.6207 7.66022 13.8233 7.72806 14.0094 7.82981C14.0547 7.85326 14.0925 7.88882 14.1188 7.93252C14.145 7.97623 14.1585 8.02636 14.1579 8.07732C14.1582 8.11406 14.1511 8.15048 14.137 8.18442C14.123 8.21836 14.1023 8.24915 14.0761 8.27495C14.05 8.30076 14.0189 8.32106 13.9848 8.33467C13.9507 8.34827 13.9142 8.3549 13.8774 8.35417C13.8267 8.35555 13.7766 8.34286 13.7326 8.3175C13.6246 8.25735 13.5098 8.21027 13.3907 8.17725V8.80427C14.0177 8.97386 14.2863 9.22962 14.2863 9.69164C14.2863 10.1537 13.9315 10.4507 13.4108 10.5084V10.7275C13.4112 10.763 13.4027 10.798 13.3862 10.8294C13.3697 10.8608 13.3456 10.8875 13.3161 10.9073C13.2866 10.927 13.2527 10.9391 13.2174 10.9425C13.1821 10.9458 13.1465 10.9403 13.1138 10.9264C13.0743 10.9105 13.0405 10.883 13.0169 10.8475C12.9934 10.812 12.9811 10.7701 12.9818 10.7275V10.5048C12.6934 10.4669 12.4163 10.3685 12.1687 10.216C12.125 10.1914 12.0888 10.1554 12.0641 10.1118C12.0393 10.0682 12.027 10.0186 12.0284 9.96849C12.0284 9.80715 12.1522 9.68706 12.3126 9.68706C12.3676 9.68706 12.4244 9.70814 12.4739 9.74114C12.6472 9.85298 12.8131 9.9309 13.002 9.97215V9.31671C12.4079 9.15537 12.1155 8.92803 12.1155 8.43667C12.1155 7.98382 12.462 7.67764 12.9818 7.62447V7.57497C12.9809 7.5322 12.9931 7.49018 13.0167 7.45449C13.0403 7.41879 13.0741 7.39112 13.1138 7.37513C13.1397 7.36331 13.1679 7.35766 13.1963 7.35863ZM13.0011 8.69702V8.13874C12.803 8.16808 12.7169 8.26708 12.7169 8.39909C12.7169 8.52743 12.7737 8.61451 13.0011 8.69702ZM13.3888 9.41755V9.9914C13.5838 9.96146 13.6816 9.87193 13.6822 9.72281C13.6822 9.58622 13.6116 9.49547 13.3888 9.41755Z" fill="#17B198"/>
<path d="M12.1689 10.2159C12.1251 10.1914 12.089 10.1554 12.0642 10.1117C12.0395 10.0681 12.0272 10.0186 12.0286 9.96844C12.0286 9.8071 12.1524 9.68792 12.3128 9.68792C12.3669 9.68792 12.4246 9.70809 12.4741 9.74109C12.53 9.77776 12.586 9.80526 12.6419 9.83368L13.0021 9.47342V9.31666C12.4081 9.15624 12.1157 8.92889 12.1157 8.43846C12.1157 7.98469 12.4622 7.68034 12.9811 7.62625V7.57675C12.9811 7.45758 13.0764 7.36225 13.1956 7.36225C13.3147 7.36225 13.4101 7.45758 13.4101 7.57675V7.63451C13.62 7.66384 13.8226 7.73076 14.0087 7.83251C14.0707 7.86479 14.1182 7.91922 14.1418 7.98497C14.1654 8.05072 14.1634 8.12296 14.1361 8.18728C14.1148 8.23818 14.0786 8.28148 14.0324 8.31156C13.9861 8.34165 13.9319 8.35711 13.8767 8.35595C13.8259 8.35733 13.7758 8.34464 13.7318 8.31928C13.6238 8.25913 13.5091 8.21205 13.3899 8.17903V8.80514C13.4663 8.82592 13.5375 8.84822 13.6035 8.87206L15.6973 6.7783C15.3772 6.4374 14.9907 6.16576 14.5615 5.98018C14.1323 5.7946 13.6696 5.69901 13.202 5.69934C12.6327 5.69939 12.0722 5.84084 11.5711 6.11099C11.0699 6.38115 10.6437 6.77154 10.3307 7.24713C10.0177 7.72271 9.82774 8.26858 9.77785 8.83573C9.72795 9.40288 9.8197 9.97353 10.0449 10.4965C10.23 10.9255 10.5023 11.3123 10.8424 11.6332L12.2284 10.2471C12.2077 10.2379 12.1878 10.2276 12.1689 10.2159ZM6.32579 10.1683C6.46362 10.1724 6.60088 10.1488 6.72943 10.0989C6.85798 10.049 6.9752 9.97377 7.07416 9.87773C7.17311 9.78169 7.25177 9.66676 7.30549 9.53975C7.35921 9.41275 7.38689 9.27626 7.38689 9.13836C7.38689 9.00046 7.35921 8.86397 7.30549 8.73696C7.25177 8.60996 7.17311 8.49503 7.07416 8.39899C6.9752 8.30295 6.85798 8.22774 6.72943 8.17783C6.60088 8.12793 6.46362 8.10433 6.32579 8.10844C6.05251 8.10844 5.79043 8.217 5.5972 8.41023C5.40397 8.60347 5.29541 8.86555 5.29541 9.13882C5.29541 9.41209 5.40397 9.67417 5.5972 9.8674C5.79043 10.0606 6.05251 10.1683 6.32579 10.1683Z" fill="white"/>
<path d="M13.0011 8.14319V8.69779C12.7738 8.61712 12.7169 8.52729 12.7169 8.39895C12.7169 8.27061 12.8022 8.17161 13.0011 8.14319ZM25.802 9.79967L13.0011 19.3994L0.201172 9.79967V25.7998H25.802V9.79967Z" fill="white"/>
</svg>
