<svg width="30" height="30" viewBox="0 0 30 30" fill="none" xmlns="http://www.w3.org/2000/svg">
<path d="M26.7116 22.554L8.6952 23.1821C8.6952 23.1821 7.99208 26.4188 8.16786 26.9438C8.23349 27.1407 10.4765 24.9633 10.4765 24.9633C10.4765 24.9633 13.2819 28.4274 13.4788 28.3946C13.6757 28.3618 15.8225 26.1844 15.8225 26.1844C15.8225 26.1844 19.0241 28.8563 19.2538 28.8563C19.4835 28.8563 21.4311 26.018 21.4311 26.018C21.4311 26.018 23.9061 27.7993 24.0702 27.7665C24.2343 27.7336 25.9171 25.0618 25.9171 25.0618C25.9171 25.0618 28.5468 25.8422 28.8093 25.7766C29.0765 25.711 27.635 22.9172 26.7116 22.554Z" fill="#B1B1B1"/>
<path d="M7.77186 12.8859L7.61717 8.73984L10.4226 6.03516L16.6476 6.12422C16.6476 6.12422 18.2976 7.61016 18.7265 7.87266C19.1555 8.1375 20.6578 8.89922 23.3742 12.2297C24.8203 14.0039 25.9875 16.9781 26.3156 17.7703C26.6437 18.5625 28.8562 25.5234 28.8562 25.7227C28.8562 25.9219 26.1515 23.5125 25.9851 23.6437C25.8211 23.775 24.2367 26.8102 24.0375 26.8781C23.8406 26.9438 21.6281 24.7336 21.3984 24.832C21.1687 24.9305 19.3523 28.0664 19.2211 28.0664C19.0898 28.0664 16.3851 24.6984 16.0547 24.6328C15.7242 24.5672 13.7109 27.3703 13.4484 27.3703C13.1836 27.3703 10.7765 23.4773 10.4789 23.4773C10.1812 23.4773 8.32264 26.5359 8.15858 26.6672C7.99452 26.7984 7.64061 21.8602 7.57499 21.2672C7.50936 20.6742 7.77186 12.8859 7.77186 12.8859Z" fill="white"/>
<path d="M13.9311 19.4672C13.6804 19.4672 13.4483 19.3055 13.371 19.0524L12.9538 17.6883C12.9134 17.5412 12.9319 17.3842 13.0055 17.2506C13.079 17.1169 13.2018 17.0173 13.3476 16.9727C13.4935 16.9281 13.651 16.9422 13.7867 17.012C13.9223 17.0817 14.0254 17.2016 14.0741 17.3461L14.4913 18.7102C14.518 18.7978 14.5239 18.8904 14.5084 18.9806C14.4928 19.0709 14.4564 19.1562 14.4019 19.2298C14.3475 19.3034 14.2765 19.3632 14.1947 19.4045C14.113 19.4457 14.0227 19.4672 13.9311 19.4672ZM18.7054 21.0071C18.4757 21.0071 18.2577 20.8711 18.164 20.6461L17.503 19.0618C17.3788 18.7618 17.5194 18.4196 17.8194 18.2953C18.1194 18.1711 18.4616 18.3118 18.5858 18.6118L19.2468 20.1961C19.284 20.2852 19.2986 20.3821 19.2893 20.4781C19.28 20.5742 19.2471 20.6665 19.1935 20.7468C19.1399 20.8271 19.0673 20.8928 18.9821 20.9383C18.897 20.9837 18.8019 21.0073 18.7054 21.0071ZM21.8718 19.0266C21.7608 19.0266 21.6521 18.9951 21.5583 18.9358C21.4646 18.8765 21.3896 18.7917 21.3421 18.6914L20.7491 17.4375C20.7162 17.368 20.6972 17.2926 20.6934 17.2157C20.6896 17.1389 20.701 17.062 20.7269 16.9895C20.7528 16.917 20.7927 16.8504 20.8444 16.7933C20.896 16.7363 20.9585 16.69 21.028 16.6571C21.321 16.5188 21.6702 16.643 21.8085 16.936L22.4015 18.1899C22.4438 18.2792 22.4628 18.3778 22.4567 18.4764C22.4507 18.5751 22.4198 18.6706 22.367 18.7541C22.3141 18.8376 22.241 18.9063 22.1544 18.954C22.0678 19.0016 21.9706 19.0266 21.8718 19.0266ZM18.089 14.9789C17.9038 14.9789 17.721 14.8899 17.6061 14.7258L16.528 13.1649C16.3452 12.8977 16.4108 12.5344 16.678 12.3493C16.9452 12.1641 17.3085 12.2321 17.4936 12.4993L18.5718 14.0602C18.7546 14.3274 18.689 14.6907 18.4218 14.8758C18.321 14.9461 18.2038 14.9789 18.089 14.9789Z" fill="#DADADA"/>
<path d="M10.4132 16.2844C11.1163 16.3383 17.2429 15.3375 15.0538 10.5C13.3616 6.75704 8.60849 10.0383 7.72958 11.3367C7.57021 11.5735 7.27958 15.2953 7.27958 15.2953C7.27958 15.2953 5.16552 18.3305 5.85927 20.0133C6.55302 21.6961 8.61083 22.0149 9.85068 20.5735C10.8749 19.3875 10.5116 16.8469 10.4132 16.2844Z" fill="#FF615E"/>
<path d="M8.23354 8.9601C8.72104 8.20541 10.3124 6.61635 12.8203 6.51791C15.3281 6.41948 16.6148 6.91401 17.0765 7.11088C17.5382 7.30776 18.8578 7.9687 18.8578 7.9687C18.8578 7.9687 21.3374 6.79682 21.239 4.22338C21.1406 1.64995 18.4968 1.46948 17.4726 2.03198C16.4484 2.59448 16.2843 3.41713 15.5249 3.44995C14.7656 3.48276 14.1726 1.63588 11.796 2.55932C9.77338 3.34682 10.4249 5.2851 9.68432 5.76088C8.85932 6.28823 7.07807 5.16792 5.82416 6.91635C4.57026 8.66479 6.12182 10.2492 6.44994 10.514C6.78041 10.7789 7.86791 11.3835 7.86791 11.3835C7.86791 11.3835 7.50932 10.0828 8.23354 8.9601Z" fill="#FF615E"/>
<path d="M9.70788 15.2508C10.0126 15.0891 9.77351 13.7766 9.02585 12.743C8.2782 11.7094 7.70632 11.2688 7.70632 11.2688C7.70632 11.2688 5.00163 11.8852 3.26257 12.8532C2.29226 13.3946 1.09695 14.5805 1.2282 15.0188C1.35945 15.4594 3.85085 15.3446 5.94617 15.2836C8.16804 15.218 9.33523 15.45 9.70788 15.2508Z" fill="#FFECB4"/>
<path d="M1.2165 14.8453C1.2165 14.8453 3.73604 14.6696 4.86807 14.5149C6.0001 14.3602 6.73369 14.2547 7.16728 14.1516C7.629 14.0414 8.61807 13.7555 8.61807 13.7555L8.68369 14.2172C8.68369 14.2172 6.28604 14.7563 4.90088 14.8781C3.68213 14.9836 1.68994 15.1313 1.52354 15.1313C1.35713 15.1313 1.25869 15.0539 1.2165 15C1.17432 14.9461 1.2165 14.8453 1.2165 14.8453Z" fill="#FE5F12"/>
<path d="M8.8665 14.3391C9.0762 14.3391 9.24619 14.1638 9.24619 13.9477C9.24619 13.7315 9.0762 13.5563 8.8665 13.5563C8.65681 13.5563 8.48682 13.7315 8.48682 13.9477C8.48682 14.1638 8.65681 14.3391 8.8665 14.3391Z" fill="#FE5F12"/>
<path d="M13.1602 12.7969C12.9821 13.5985 12.2602 14.1516 11.3368 13.8211C10.6501 13.575 10.397 12.743 10.6571 11.9649C10.9173 11.1867 11.6626 10.8281 12.3774 10.9735C13.097 11.1164 13.3384 11.9953 13.1602 12.7969Z" fill="#2C2B2C"/>
</svg>
