<svg width="14" height="12" viewBox="0 0 14 12" fill="none" xmlns="http://www.w3.org/2000/svg">
<path d="M0 2C0 1.60218 0.158035 1.22064 0.43934 0.93934C0.720644 0.658035 1.10218 0.5 1.5 0.5H3C3.39782 0.5 3.77936 0.658035 4.06066 0.93934C4.34196 1.22064 4.5 1.60218 4.5 2V3.5C4.5 3.89782 4.34196 4.27936 4.06066 4.56066C3.77936 4.84196 3.39782 5 3 5H1.5C1.10218 5 0.720644 4.84196 0.43934 4.56066C0.158035 4.27936 0 3.89782 0 3.5V2ZM6.5 1C6.36739 1 6.24021 1.05268 6.14645 1.14645C6.05268 1.24021 6 1.36739 6 1.5C6 1.63261 6.05268 1.75979 6.14645 1.85355C6.24021 1.94732 6.36739 2 6.5 2H13.5C13.6326 2 13.7598 1.94732 13.8536 1.85355C13.9473 1.75979 14 1.63261 14 1.5C14 1.36739 13.9473 1.24021 13.8536 1.14645C13.7598 1.05268 13.6326 1 13.5 1H6.5ZM6.5 7.5C6.36739 7.5 6.24021 7.55268 6.14645 7.64645C6.05268 7.74021 6 7.86739 6 8C6 8.13261 6.05268 8.25979 6.14645 8.35355C6.24021 8.44732 6.36739 8.5 6.5 8.5H13.5C13.6326 8.5 13.7598 8.44732 13.8536 8.35355C13.9473 8.25979 14 8.13261 14 8C14 7.86739 13.9473 7.74021 13.8536 7.64645C13.7598 7.55268 13.6326 7.5 13.5 7.5H6.5ZM6 3.5C6 3.36739 6.05268 3.24021 6.14645 3.14645C6.24021 3.05268 6.36739 3 6.5 3H11C11.1326 3 11.2598 3.05268 11.3536 3.14645C11.4473 3.24021 11.5 3.36739 11.5 3.5C11.5 3.63261 11.4473 3.75979 11.3536 3.85355C11.2598 3.94732 11.1326 4 11 4H6.5C6.36739 4 6.24021 3.94732 6.14645 3.85355C6.05268 3.75979 6 3.63261 6 3.5ZM6.5 9.5C6.36739 9.5 6.24021 9.55268 6.14645 9.64645C6.05268 9.74021 6 9.86739 6 10C6 10.1326 6.05268 10.2598 6.14645 10.3536C6.24021 10.4473 6.36739 10.5 6.5 10.5H11C11.1326 10.5 11.2598 10.4473 11.3536 10.3536C11.4473 10.2598 11.5 10.1326 11.5 10C11.5 9.86739 11.4473 9.74021 11.3536 9.64645C11.2598 9.55268 11.1326 9.5 11 9.5H6.5ZM1.5 7C1.10218 7 0.720644 7.15804 0.43934 7.43934C0.158035 7.72064 0 8.10218 0 8.5V10C0 10.3978 0.158035 10.7794 0.43934 11.0607C0.720644 11.342 1.10218 11.5 1.5 11.5H3C3.39782 11.5 3.77936 11.342 4.06066 11.0607C4.34196 10.7794 4.5 10.3978 4.5 10V8.5C4.5 8.10218 4.34196 7.72064 4.06066 7.43934C3.77936 7.15804 3.39782 7 3 7H1.5Z" fill="white"/>
</svg>
