<svg width="21" height="21" viewBox="0 0 21 21" fill="none" xmlns="http://www.w3.org/2000/svg">
<path d="M14.4174 2.62849C14.5635 2.64161 14.6274 2.82011 14.5224 2.92424L7.24242 10.2042C7.16018 10.2865 7.10129 10.3892 7.07179 10.5017L6.19679 13.853C6.16791 13.9637 6.16849 14.0801 6.19848 14.1906C6.22847 14.301 6.28683 14.4017 6.36776 14.4826C6.44869 14.5636 6.54938 14.6219 6.65984 14.6519C6.77029 14.6819 6.88667 14.6825 6.99742 14.6536L10.3478 13.7786C10.4604 13.7489 10.5631 13.6897 10.6453 13.6071L18.0285 6.22386C18.0516 6.20015 18.0811 6.18355 18.1133 6.17603C18.1455 6.16851 18.1793 6.17038 18.2105 6.18143C18.2417 6.19248 18.2691 6.21223 18.2894 6.23836C18.3097 6.26449 18.3221 6.2959 18.3252 6.32886C18.6325 9.25978 18.6149 12.2157 18.2727 15.1427C18.0775 16.8096 16.7379 18.1177 15.0772 18.3041C12.0353 18.6411 8.96561 18.6411 5.92379 18.3041C4.26217 18.1177 2.92254 16.8096 2.72742 15.1427C2.3669 12.0584 2.3669 8.94249 2.72742 5.85811C2.92254 4.19036 4.26217 2.88224 5.92379 2.69674C8.74524 2.38399 11.5913 2.36112 14.4174 2.62849Z" fill="#F26D2B"/>
<path d="M15.5952 3.70733C15.6156 3.68696 15.6397 3.6708 15.6663 3.65977C15.6928 3.64874 15.7213 3.64307 15.7501 3.64307C15.7789 3.64307 15.8074 3.64874 15.8339 3.65977C15.8605 3.6708 15.8847 3.68696 15.905 3.70733L17.1422 4.94546C17.1831 4.98646 17.2061 5.042 17.2061 5.09989C17.2061 5.15779 17.1831 5.21333 17.1422 5.25433L9.88586 12.5125C9.85827 12.54 9.82383 12.5596 9.78611 12.5693L8.11136 13.0068C8.07444 13.0165 8.03565 13.0163 7.99883 13.0063C7.96201 12.9963 7.92845 12.9768 7.90147 12.9498C7.8745 12.9229 7.85504 12.8893 7.84505 12.8525C7.83505 12.8157 7.83485 12.7769 7.84448 12.74L8.28198 11.0652C8.29172 11.0275 8.31136 10.993 8.33886 10.9655L15.5952 3.70733Z" fill="#F26D2B"/>
</svg>
