<svg width="25" height="24" viewBox="0 0 25 24" fill="none" xmlns="http://www.w3.org/2000/svg">
<path fill-rule="evenodd" clip-rule="evenodd" d="M11.6361 1.21065C11.9972 0.929784 12.5028 0.929784 12.8639 1.21065L21.8639 8.21065C22.1075 8.4001 22.25 8.69141 22.25 9V20C22.25 20.7957 21.9339 21.5587 21.3713 22.1213C20.8087 22.6839 20.0457 23 19.25 23H5.25C4.45435 23 3.69129 22.6839 3.12868 22.1213C2.56607 21.5587 2.25 20.7957 2.25 20V9C2.25 8.69141 2.39247 8.4001 2.63606 8.21065L11.6361 1.21065ZM4.25 9.48908V20C4.25 20.2652 4.35536 20.5196 4.54289 20.7071C4.73043 20.8946 4.98478 21 5.25 21H19.25C19.5152 21 19.7696 20.8946 19.9571 20.7071C20.1446 20.5196 20.25 20.2652 20.25 20V9.48908L12.25 3.26686L4.25 9.48908Z" fill="white"/>
<path fill-rule="evenodd" clip-rule="evenodd" d="M8.25 12C8.25 11.4477 8.69772 11 9.25 11H15.25C15.8023 11 16.25 11.4477 16.25 12V22C16.25 22.5523 15.8023 23 15.25 23C14.6977 23 14.25 22.5523 14.25 22V13H10.25V22C10.25 22.5523 9.80228 23 9.25 23C8.69772 23 8.25 22.5523 8.25 22V12Z" fill="white"/>
</svg>
