<svg width="26" height="26" viewBox="0 0 26 26" fill="none" xmlns="http://www.w3.org/2000/svg">
<path d="M3.0875 8.28751C3.81875 9.46564 4.63125 9.62814 5.2 8.93751C6.09375 7.88126 5.11875 6.54064 4.0625 6.17501C2.31562 5.48439 0.8125 7.43439 0.8125 7.43439C0.8125 7.43439 2.47812 7.27189 3.0875 8.28751Z" fill="#F29A2E"/>
<path d="M17.3874 4.14372C14.2593 5.97184 16.8593 10.3593 11.2124 11.5375L17.2249 14.5031C18.4437 16.6156 21.8155 16.7781 21.8155 16.7781C21.8155 16.7781 22.6687 14.2593 21.978 12.3906C23.8468 12.3906 25.1468 11.2531 25.1468 11.2531C25.1468 11.2531 24.0905 7.51559 20.8812 7.51559C24.0499 6.21559 24.6187 3.53434 24.6187 3.53434C24.6187 3.53434 21.8155 1.58434 17.3874 4.14372Z" fill="#E1EAF2"/>
<path d="M14.5032 25.1875H8.69385C8.69385 24.7 12.1063 24.6188 12.2688 21.3688C12.797 24.9844 14.5032 24.7 14.5032 25.1875Z" fill="#535353"/>
<path d="M20.0688 12.4312C20.0688 17.1031 16.2501 21.8969 11.5376 21.8969C6.8251 21.8969 3.00635 17.1031 3.00635 12.4312C3.00635 9.30311 9.7501 11.4969 11.5376 11.4969C16.2501 11.4562 20.0688 7.71874 20.0688 12.4312Z" fill="#D1DCE6"/>
<path d="M14.7875 19.9875C14.7875 20.9218 13.4469 22.9531 12.2688 22.9531C11.0906 22.9531 9.75 21.5718 9.75 20.6375C9.75 19.7031 14.7875 19.5406 14.7875 19.9875Z" fill="#D1DCE6"/>
<path d="M2.64062 10.6843C2.64062 11.9031 2.88437 15.4374 2.88437 15.4374L3.98125 14.0562L5.28125 15.5999L5.56562 13.4468L7.55625 14.8687L7.19063 12.7562L9.5875 12.9999L8.49062 11.6999L10.1562 10.6031C10.1562 10.6031 8.125 11.0499 8.16563 9.79057C8.20625 8.53119 9.22188 4.95619 7.9625 4.42807C5.64688 3.57494 2.64062 5.52494 2.64062 10.6843Z" fill="#E1EAF2"/>
<path d="M2.64058 6.66257C2.79763 6.66257 2.92495 6.60801 2.92495 6.5407C2.92495 6.47339 2.79763 6.41882 2.64058 6.41882C2.48352 6.41882 2.3562 6.47339 2.3562 6.5407C2.3562 6.60801 2.48352 6.66257 2.64058 6.66257Z" fill="#3E4347"/>
<path d="M4.67188 7.3938C5.00842 7.3938 5.28125 7.12097 5.28125 6.78442C5.28125 6.44788 5.00842 6.17505 4.67188 6.17505C4.33533 6.17505 4.0625 6.44788 4.0625 6.78442C4.0625 7.12097 4.33533 7.3938 4.67188 7.3938Z" fill="#3E4347"/>
<path d="M3.16876 9.5875C3.16876 10.8875 2.31564 9.95312 2.31564 9.95312C2.03126 9.95312 0.853139 10.8469 1.25939 9.34375C1.78751 7.39375 3.81876 6.09375 3.81876 6.09375C3.81876 6.09375 3.16876 7.23125 3.16876 9.5875Z" fill="#E24B4B"/>
<path d="M8.4501 4.30626V3.81876C8.36885 2.80313 9.83135 2.39688 9.66885 1.86876C9.4251 1.17813 7.51573 1.62501 6.58135 3.12813C6.45948 3.29063 6.37823 3.49376 6.3376 3.73751C6.29698 3.57501 6.25635 3.41251 6.1751 3.25001C5.72823 2.31563 7.06885 1.46251 6.6626 1.01563C6.13448 0.406257 4.5501 1.46251 4.18448 3.20938C4.10323 3.57501 4.10323 3.94063 4.2251 4.30626C4.18448 4.26563 4.14385 4.22501 4.10323 4.22501C3.4126 3.69688 4.10323 2.60001 3.61573 2.35626C2.88448 2.03126 2.23448 3.49376 2.6001 4.91563C2.84385 5.72813 3.7376 6.58126 4.46885 5.89063C4.7126 5.68751 5.28135 5.36251 5.60635 5.24063C5.8501 5.15938 6.5001 5.20001 6.90635 5.48438C7.27198 5.72813 7.55635 6.21563 8.08448 6.21563C10.4001 6.29688 11.6595 4.06251 10.8064 3.57501C10.3595 3.25001 9.66885 4.06251 8.4501 4.30626Z" fill="#E24B4B"/>
<path d="M17.2657 17.8344C16.9001 16.9406 15.8438 16.4531 15.8438 16.4531C16.9407 15.8844 17.5907 14.6656 17.5907 14.6656C17.0219 14.4219 14.8282 14.2594 14.8282 14.2594C15.3157 13.7719 15.7219 13.0812 15.7219 13.0812C15.7219 13.0812 13.2032 12.4719 11.0907 13.6094C8.32819 15.1531 9.1407 18.8094 12.2688 19.2156C15.7219 19.6625 17.2657 17.8344 17.2657 17.8344Z" fill="#E1EAF2"/>
</svg>
