<svg width="10" height="10" viewBox="0 0 10 10" fill="none" xmlns="http://www.w3.org/2000/svg">
<g clip-path="url(#clip0_134_1386)">
<path d="M1.25 0.625H0.625V8.75C0.625 8.91576 0.690848 9.07473 0.808058 9.19194C0.925268 9.30915 1.08424 9.375 1.25 9.375H9.375V8.75H1.25V0.625Z" fill="#46AE00"/>
<path d="M9.375 2.8125H7.1875V3.4375H8.30937L5.9375 5.80938L4.59687 4.46563C4.56782 4.43633 4.53326 4.41309 4.49518 4.39722C4.4571 4.38136 4.41625 4.37319 4.375 4.37319C4.33375 4.37319 4.2929 4.38136 4.25482 4.39722C4.21674 4.41309 4.18218 4.43633 4.15313 4.46563L1.875 6.74688L2.31562 7.1875L4.375 5.12812L5.71563 6.47187C5.74468 6.50116 5.77924 6.52441 5.81732 6.54028C5.8554 6.55614 5.89625 6.56431 5.9375 6.56431C5.97875 6.56431 6.0196 6.55614 6.05768 6.54028C6.09576 6.52441 6.13032 6.50116 6.15937 6.47187L8.75 3.87812V5H9.375V2.8125Z" fill="#46AE00"/>
</g>
<defs>
<clipPath id="clip0_134_1386">
<rect width="10" height="10" fill="white"/>
</clipPath>
</defs>
</svg>
