<svg width="34" height="34" viewBox="0 0 34 34" fill="none" xmlns="http://www.w3.org/2000/svg">
<path d="M18.1767 1.4291C18.4131 0.911131 18.8541 0.765037 19.2206 0.7491C19.7784 0.722537 20.3628 1.10769 20.9127 1.56191C21.3031 2.00285 21.7706 2.34285 22.3125 2.58191C22.687 2.71472 23.0589 2.74129 23.4361 2.72269C23.9673 2.69613 24.5066 2.57926 25.0405 2.55269L25.0697 2.55004L25.3114 2.52879C25.9223 2.49957 26.4987 2.64301 27.0459 2.9591C27.548 3.41597 27.7684 3.98441 27.6994 4.66972C27.5825 5.23551 27.6834 5.75347 27.9995 6.22363C28.5441 6.60613 29.1152 6.94082 29.7155 7.22504C30.337 7.56504 30.7275 8.07769 30.8975 8.76035C30.9586 9.48285 30.6239 9.94504 29.9014 10.1443C28.9611 10.3807 27.6967 10.3807 26.6316 11.2041C25.075 12.503 24.5862 13.8125 23.9089 14.0118C23.5769 13.6346 21.505 12.0329 18.0306 11.2652C17.4091 9.1216 17.0319 3.94722 18.1767 1.4291Z" fill="white"/>
<path d="M21.6829 10.8083C22.2938 9.58643 24.0336 7.43753 24.4507 7.86253C24.8624 8.32472 23.9141 10.726 23.2474 11.9027C23.011 11.653 22.2486 11.1297 21.9166 11.0421" fill="#D19B15"/>
<path d="M24.7562 14.721C24.3976 14.721 24.047 14.5377 23.8478 14.2083C22.0203 11.2015 17.8819 11.5175 17.842 11.5229C17.2576 11.5707 16.7423 11.1404 16.6919 10.5586C16.6672 10.2788 16.7541 10.0006 16.9338 9.78464C17.1134 9.56868 17.3711 9.43251 17.6508 9.40583C17.8739 9.38458 23.1412 8.95161 25.6647 13.1086C25.9701 13.6107 25.8081 14.2641 25.3087 14.5669C25.1334 14.6705 24.9448 14.721 24.7562 14.721Z" fill="#8D6E63"/>
<path d="M25.5159 32.4249C20.9658 33.5458 14.6412 33.4661 10.123 32.5736C5.89422 31.7369 2.65625 29.2427 3.02812 24.3339C3.40531 19.3667 6.6964 14.6891 11.2227 12.6278C15.6028 10.633 21.4811 9.66081 24.5783 14.1871C25.3486 15.3133 26.8202 17.8128 26.8892 19.04C26.8945 19.1383 26.8998 19.226 26.9211 19.311C26.9264 19.6191 27.0513 19.9299 27.3541 20.1583C29.3011 21.6325 30.7195 23.5875 30.9798 26.2677C31.288 29.4632 28.2652 31.7475 25.5159 32.4249Z" fill="#EFEFEF"/>
<path d="M21.481 24.2064C20.9285 23.3086 19.9112 22.3338 18.9496 21.497L19.696 19.4305C20.3601 19.9485 20.9444 20.4345 21.4013 20.8542C21.4757 20.926 21.5926 20.9313 21.6776 20.8702L23.3882 19.5978C23.436 19.5606 23.4652 19.5075 23.4732 19.4464C23.476 19.4166 23.4725 19.3865 23.4629 19.3581C23.4533 19.3297 23.4378 19.3037 23.4174 19.2817C22.9101 18.7159 21.8104 17.7252 20.6071 16.9097L21.0454 15.6984C21.0958 15.5603 21.0268 15.4089 20.886 15.3558L18.8752 14.628C18.7371 14.5775 18.583 14.6492 18.5326 14.7874L18.2058 15.6931C16.3119 15.1061 14.8085 15.2947 13.6291 16.2802C12.7048 17.0558 12.3063 18.1635 12.5879 19.1675C12.8748 20.238 13.7141 20.9711 14.7766 21.8981L14.9121 22.0177C15.1591 22.2302 15.4221 22.4506 15.6798 22.6711L14.7713 25.1839C13.5787 24.403 12.5799 23.3219 12.4099 23.0855C12.3781 23.0416 12.3307 23.0114 12.2775 23.001C12.2242 22.9907 12.169 23.0009 12.123 23.0297L10.1521 24.2888C10.1043 24.318 10.0698 24.3685 10.0565 24.4269C10.0458 24.4827 10.0565 24.5411 10.0883 24.5889C10.6807 25.4814 11.6502 26.4802 12.6835 27.2611C12.9305 27.447 13.3024 27.7074 13.7593 27.9809L13.4166 28.9239C13.3688 29.062 13.4379 29.2135 13.576 29.2639L15.5894 29.9944C15.7276 30.0449 15.8816 29.9731 15.9321 29.835L16.2163 29.0488C18.0544 29.5481 19.6694 29.2586 20.9179 28.1908C22.1238 27.1575 22.331 25.7072 21.481 24.2064ZM17.3133 18.1688L16.7635 19.6908C16.2508 19.2924 15.9773 18.9922 16.1712 18.5619C16.373 18.1209 16.8751 18.0917 17.3133 18.1688ZM17.8579 24.5172C18.2112 24.8599 18.4608 25.176 18.4848 25.4655C18.4954 25.6302 18.4343 25.7895 18.2908 25.9542C18.0412 26.2438 17.6427 26.2995 17.231 26.2491L17.8579 24.5172Z" fill="#0D9681"/>
</svg>
