<svg width="11" height="10" viewBox="0 0 11 10" fill="none" xmlns="http://www.w3.org/2000/svg">
<g clip-path="url(#clip0_134_1384)">
<path d="M3.3974 5C2.77865 5.0186 2.27257 5.2567 1.87917 5.71429H1.11146C0.798264 5.71429 0.534722 5.63895 0.320833 5.48828C0.106944 5.33761 0 5.11719 0 4.82701C0 3.51377 0.236806 2.85714 0.710417 2.85714C0.733333 2.85714 0.816406 2.89621 0.959635 2.97433C1.10286 3.05246 1.28906 3.13151 1.51823 3.2115C1.7474 3.29148 1.97465 3.33147 2.2 3.33147C2.4559 3.33147 2.7099 3.28869 2.96198 3.20312C2.94288 3.34077 2.93333 3.46354 2.93333 3.57143C2.93333 4.08854 3.08802 4.56473 3.3974 5ZM9.53333 8.55469C9.53333 9.00112 9.39392 9.35361 9.1151 9.61217C8.83628 9.87072 8.4658 10 8.00365 10H2.99635C2.5342 10 2.16372 9.87072 1.8849 9.61217C1.60608 9.35361 1.46667 9.00112 1.46667 8.55469C1.46667 8.35752 1.47335 8.16499 1.48672 7.97712C1.50009 7.78925 1.52682 7.5865 1.56693 7.36886C1.60703 7.15123 1.65764 6.9494 1.71875 6.76339C1.77986 6.57738 1.86198 6.39602 1.9651 6.21931C2.06823 6.0426 2.18663 5.89193 2.32031 5.7673C2.45399 5.64267 2.61727 5.54315 2.81016 5.46875C3.00304 5.39435 3.21597 5.35714 3.44896 5.35714C3.48715 5.35714 3.56927 5.39714 3.69531 5.47712C3.82135 5.55711 3.96076 5.64639 4.11354 5.74498C4.26632 5.84356 4.47066 5.93285 4.72656 6.01284C4.98247 6.09282 5.24028 6.13281 5.5 6.13281C5.75972 6.13281 6.01753 6.09282 6.27344 6.01284C6.52934 5.93285 6.73368 5.84356 6.88646 5.74498C7.03924 5.64639 7.17865 5.55711 7.30469 5.47712C7.43073 5.39714 7.51285 5.35714 7.55104 5.35714C7.78403 5.35714 7.99696 5.39435 8.18984 5.46875C8.38273 5.54315 8.54601 5.64267 8.67969 5.7673C8.81337 5.89193 8.93177 6.0426 9.0349 6.21931C9.13802 6.39602 9.22014 6.57738 9.28125 6.76339C9.34236 6.9494 9.39297 7.15123 9.43307 7.36886C9.47318 7.5865 9.49991 7.78925 9.51328 7.97712C9.52665 8.16499 9.53333 8.35752 9.53333 8.55469ZM3.66667 1.42857C3.66667 1.82292 3.52344 2.1596 3.23698 2.43862C2.95052 2.71763 2.60486 2.85714 2.2 2.85714C1.79514 2.85714 1.44948 2.71763 1.16302 2.43862C0.876563 2.1596 0.733333 1.82292 0.733333 1.42857C0.733333 1.03423 0.876563 0.697545 1.16302 0.418527C1.44948 0.139509 1.79514 0 2.2 0C2.60486 0 2.95052 0.139509 3.23698 0.418527C3.52344 0.697545 3.66667 1.03423 3.66667 1.42857ZM7.7 3.57143C7.7 4.16295 7.48516 4.66797 7.05547 5.0865C6.62578 5.50502 6.10729 5.71429 5.5 5.71429C4.89271 5.71429 4.37422 5.50502 3.94453 5.0865C3.51484 4.66797 3.3 4.16295 3.3 3.57143C3.3 2.97991 3.51484 2.47489 3.94453 2.05636C4.37422 1.63783 4.89271 1.42857 5.5 1.42857C6.10729 1.42857 6.62578 1.63783 7.05547 2.05636C7.48516 2.47489 7.7 2.97991 7.7 3.57143ZM11 4.82701C11 5.11719 10.8931 5.33761 10.6792 5.48828C10.4653 5.63895 10.2017 5.71429 9.88854 5.71429H9.12083C8.72743 5.2567 8.22135 5.0186 7.6026 5C7.91198 4.56473 8.06667 4.08854 8.06667 3.57143C8.06667 3.46354 8.05712 3.34077 8.03802 3.20312C8.2901 3.28869 8.5441 3.33147 8.8 3.33147C9.02535 3.33147 9.2526 3.29148 9.48177 3.2115C9.71094 3.13151 9.89714 3.05246 10.0404 2.97433C10.1836 2.89621 10.2667 2.85714 10.2896 2.85714C10.7632 2.85714 11 3.51377 11 4.82701ZM10.2667 1.42857C10.2667 1.82292 10.1234 2.1596 9.83698 2.43862C9.55052 2.71763 9.20486 2.85714 8.8 2.85714C8.39514 2.85714 8.04948 2.71763 7.76302 2.43862C7.47656 2.1596 7.33333 1.82292 7.33333 1.42857C7.33333 1.03423 7.47656 0.697545 7.76302 0.418527C8.04948 0.139509 8.39514 0 8.8 0C9.20486 0 9.55052 0.139509 9.83698 0.418527C10.1234 0.697545 10.2667 1.03423 10.2667 1.42857Z" fill="#46AE00"/>
</g>
<defs>
<clipPath id="clip0_134_1384">
<rect width="11" height="10" fill="white"/>
</clipPath>
</defs>
</svg>
