<svg width="44" height="44" viewBox="0 0 44 44" fill="none" xmlns="http://www.w3.org/2000/svg">
<g filter="url(#filter0_d_675_1696)">
<circle cx="22" cy="18" r="18" fill="#E6E6E6"/>
<path d="M14 24C14 22.9391 14.4214 21.9217 15.1716 21.1716C15.9217 20.4214 16.9391 20 18 20H26C27.0609 20 28.0783 20.4214 28.8284 21.1716C29.5786 21.9217 30 22.9391 30 24C30 24.5304 29.7893 25.0391 29.4142 25.4142C29.0391 25.7893 28.5304 26 28 26H16C15.4696 26 14.9609 25.7893 14.5858 25.4142C14.2107 25.0391 14 24.5304 14 24Z" stroke="black" stroke-linejoin="round"/>
<path d="M22 16C23.6569 16 25 14.6569 25 13C25 11.3431 23.6569 10 22 10C20.3431 10 19 11.3431 19 13C19 14.6569 20.3431 16 22 16Z" stroke="black"/>
</g>
<defs>
<filter id="filter0_d_675_1696" x="0" y="0" width="44" height="44" filterUnits="userSpaceOnUse" color-interpolation-filters="sRGB">
<feFlood flood-opacity="0" result="BackgroundImageFix"/>
<feColorMatrix in="SourceAlpha" type="matrix" values="0 0 0 0 0 0 0 0 0 0 0 0 0 0 0 0 0 0 127 0" result="hardAlpha"/>
<feOffset dy="4"/>
<feGaussianBlur stdDeviation="2"/>
<feComposite in2="hardAlpha" operator="out"/>
<feColorMatrix type="matrix" values="0 0 0 0 0 0 0 0 0 0 0 0 0 0 0 0 0 0 0.25 0"/>
<feBlend mode="normal" in2="BackgroundImageFix" result="effect1_dropShadow_675_1696"/>
<feBlend mode="normal" in="SourceGraphic" in2="effect1_dropShadow_675_1696" result="shape"/>
</filter>
</defs>
</svg>
