<svg width="13" height="13" viewBox="0 0 13 13" fill="none" xmlns="http://www.w3.org/2000/svg">
<path d="M3.25 10.8333C2.79861 10.8333 2.41493 10.6753 2.09896 10.3594C1.78299 10.0434 1.625 9.65972 1.625 9.20833V4.875C1.625 4.72153 1.677 4.59297 1.781 4.48933C1.885 4.38569 2.01356 4.33369 2.16667 4.33333H10.8333C10.9868 4.33333 11.1155 4.38533 11.2195 4.48933C11.3235 4.59333 11.3754 4.72189 11.375 4.875V9.20833C11.375 9.65972 11.217 10.0434 10.901 10.3594C10.5851 10.6753 10.2014 10.8333 9.75 10.8333H3.25ZM4.875 2.70833V2.16667C4.875 2.01319 4.927 1.88464 5.031 1.781C5.135 1.67736 5.26356 1.62536 5.41667 1.625H7.58334C7.73681 1.625 7.86554 1.677 7.96954 1.781C8.07354 1.885 8.12536 2.01356 8.125 2.16667V2.70833H10.8333C10.9868 2.70833 11.1155 2.76033 11.2195 2.86433C11.3235 2.96833 11.3754 3.09689 11.375 3.25C11.3746 3.40311 11.3226 3.53185 11.219 3.63621C11.1154 3.74057 10.9868 3.79239 10.8333 3.79167H2.16667C2.0132 3.79167 1.88464 3.73967 1.781 3.63567C1.67736 3.53167 1.62536 3.40311 1.625 3.25C1.62464 3.09689 1.67664 2.96833 1.781 2.86433C1.88536 2.76033 2.01392 2.70833 2.16667 2.70833H4.875Z" fill="#5B5B5B"/>
</svg>
