<svg width="17" height="17" viewBox="0 0 17 17" fill="none" xmlns="http://www.w3.org/2000/svg">
<path d="M14.875 8.11771H14.743L13.3757 4.11796L1.6405 8.11771L1.375 8.11546M1 8.11846H1.375L9.7345 1.44046L11.8472 4.40296" stroke="#EEE9E9" stroke-width="2" stroke-linecap="square"/>
<path d="M10 11.8654C10 12.3627 9.80246 12.8396 9.45083 13.1913C9.09919 13.5429 8.62228 13.7404 8.125 13.7404C7.62772 13.7404 7.15081 13.5429 6.79917 13.1913C6.44754 12.8396 6.25 12.3627 6.25 11.8654C6.25 11.3682 6.44754 10.8913 6.79917 10.5396C7.15081 10.188 7.62772 9.99045 8.125 9.99045C8.62228 9.99045 9.09919 10.188 9.45083 10.5396C9.80246 10.8913 10 11.3682 10 11.8654Z" stroke="#EEE9E9" stroke-width="2" stroke-linecap="square"/>
<path d="M15.25 8.11545V15.6154H1V8.11545H15.25Z" stroke="#EEE9E9" stroke-width="2" stroke-linecap="square"/>
<path d="M1 8.11545H2.5C2.5 8.51327 2.34196 8.8948 2.06066 9.17611C1.77936 9.45741 1.39782 9.61545 1 9.61545V8.11545ZM15.25 8.11545H13.75C13.75 8.51327 13.908 8.8948 14.1893 9.17611C14.4706 9.45741 14.8522 9.61545 15.25 9.61545V8.11545ZM1 15.6154H2.5015C2.5017 15.4182 2.46299 15.2229 2.38761 15.0406C2.31222 14.8584 2.20163 14.6928 2.06216 14.5533C1.92269 14.4138 1.75709 14.3032 1.57483 14.2278C1.39257 14.1525 1.19724 14.1138 1 14.1139V15.6154ZM15.25 15.6154H13.75C13.75 15.2176 13.908 14.8361 14.1893 14.5548C14.4706 14.2735 14.8522 14.1154 15.25 14.1154V15.6154Z" stroke="#EEE9E9" stroke-width="2" stroke-linecap="square"/>
</svg>
