<svg width="32" height="32" viewBox="0 0 32 32" fill="none" xmlns="http://www.w3.org/2000/svg">
<path fill-rule="evenodd" clip-rule="evenodd" d="M16.0001 0.166748C18.0793 0.166738 20.1382 0.576272 22.0592 1.37197C23.9802 2.16766 25.7257 3.33393 27.1959 4.80419C28.6662 6.27445 29.8325 8.01991 30.6282 9.9409C31.4239 11.8619 31.8334 13.9208 31.8334 16.0001C31.8334 24.7446 24.7446 31.8334 16.0001 31.8334C7.2556 31.8334 0.166748 24.7446 0.166748 16.0001C0.166748 7.2556 7.2556 0.166748 16.0001 0.166748ZM17.5834 17.5834H14.4167C10.4969 17.5834 7.13158 19.9575 5.68009 23.3464C7.97671 26.5668 11.7432 28.6667 16.0001 28.6667C20.2569 28.6667 24.0234 26.5668 26.3201 23.3462C24.8686 19.9575 21.5033 17.5834 17.5834 17.5834ZM16.0001 4.91675C13.3767 4.91675 11.2501 7.04341 11.2501 9.66675C11.2501 12.2901 13.3767 14.4167 16.0001 14.4167C18.6234 14.4167 20.7501 12.2901 20.7501 9.66675C20.7501 7.04341 18.6235 4.91675 16.0001 4.91675Z" fill="white"/>
</svg>
